<svg width="60" height="53" viewBox="0 0 60 53" fill="none" xmlns="http://www.w3.org/2000/svg">
<rect x="8.11401" y="19.4157" width="43.8061" height="14.6422" fill="#005F02"/>
<ellipse cx="30.017" cy="33.9198" rx="21.903" ry="2.34827" fill="#005F02"/>
<path d="M28.9324 6.29225C29.5552 5.92503 30.3296 5.92432 30.9566 6.29039L49.5888 17.1678C51.3533 18.1979 50.6372 20.8918 48.5984 20.8937L11.4608 20.9278C9.42201 20.9297 8.67457 18.2371 10.427 17.2038L28.9324 6.29225Z" fill="#005F02"/>
<line y1="-1.5" x2="33.8496" y2="-1.5" transform="matrix(0.862123 -0.506698 0.454498 0.890748 1.39087 19.8365)" stroke="#005F02" stroke-width="3"/>
<line y1="-1.5" x2="33.8291" y2="-1.5" transform="matrix(0.867257 0.497861 -0.446051 0.895007 28.5923 2.68503)" stroke="#005F02" stroke-width="3"/>
<ellipse cx="37.8124" cy="25.073" rx="4.17201" ry="4.47761" fill="#FAFAFA"/>
<ellipse cx="23.2101" cy="22.8342" rx="4.17201" ry="4.47761" fill="#FAFAFA"/>
<g opacity="0.85">
<path d="M7.64868 37.7596C25.6145 39.8578 35.0364 39.61 51.4548 37.7596V42.0337H7.64868V37.7596Z" fill="#005F02"/>
<ellipse cx="29.5517" cy="42.0337" rx="21.903" ry="2.44233" fill="#005F02"/>
</g>
<g opacity="0.85">
<path d="M7.64868 45.9686C25.6145 48.0667 35.0364 47.8189 51.4548 45.9686V50.2427H7.64868V45.9686Z" fill="#005F02"/>
<ellipse cx="29.5517" cy="50.2427" rx="21.903" ry="2.44233" fill="#005F02"/>
</g>
<rect opacity="0.5" x="15.5613" y="30.2969" width="14.602" height="22.3881" rx="1" fill="#FAFAFA"/>
<rect opacity="0.99" x="15.5613" y="28.0581" width="14.602" height="10.4478" rx="4" fill="#FAFAFA"/>
<rect x="30.1638" y="30.2969" width="14.602" height="8.20895" rx="4" fill="#FAFAFA"/>
<rect opacity="0.5" x="30.1638" y="33.282" width="14.602" height="19.403" rx="1" fill="#FAFAFA"/>
</svg>
