<svg width="214" height="47" viewBox="0 0 214 47" fill="none" xmlns="http://www.w3.org/2000/svg">
<path d="M65.0913 31.6831V10.1987H70.9141C72.4766 10.1987 73.6118 10.5812 74.3198 11.3462C75.036 12.103 75.394 13.3563 75.394 15.106V16.0459C75.394 17.055 75.2109 17.8729 74.8447 18.4995C74.4867 19.1261 73.9373 19.5371 73.1968 19.7324C74.1652 19.9766 74.8122 20.5503 75.1377 21.4536C75.4714 22.3488 75.6382 23.4434 75.6382 24.7373C75.6382 26.1289 75.508 27.3455 75.2476 28.3872C74.9871 29.4289 74.5151 30.2386 73.8315 30.8164C73.1479 31.3942 72.1755 31.6831 70.9141 31.6831H65.0913ZM69.2905 18.292H70.1694C70.5682 18.292 70.8245 18.1374 70.9385 17.8281C71.0524 17.5189 71.1094 17.1486 71.1094 16.7173V14.5566C71.1094 13.8649 70.8042 13.519 70.1938 13.519H69.2905V18.292ZM69.7178 27.8989C70.8327 27.8989 71.3901 27.37 71.3901 26.312V23.6265C71.3901 23.0161 71.2965 22.536 71.1094 22.186C70.9303 21.828 70.5885 21.6489 70.084 21.6489H69.2905V27.8745C69.4696 27.8908 69.612 27.8989 69.7178 27.8989ZM76.4683 31.6831L78.5435 12.6401H85.8311L87.8696 31.6831H83.8047L83.5239 28.2163H80.8872L80.6431 31.6831H76.4683ZM82.0347 16.0581L81.2412 24.7861H83.1211L82.23 16.0581H82.0347ZM89.188 31.6831V12.6401H95.6577C96.7563 12.6401 97.5946 12.8721 98.1724 13.3359C98.7583 13.7998 99.1571 14.4386 99.3687 15.2524C99.5802 16.0581 99.686 16.9818 99.686 18.0234C99.686 19.3337 99.507 20.3713 99.1489 21.1362C98.7909 21.9012 98.2131 22.4261 97.4155 22.7109C98.1398 22.8249 98.6525 23.1504 98.9536 23.6875C99.2629 24.2246 99.4175 24.9326 99.4175 25.8115V31.6831H95.1572V25.5308C95.1572 24.9041 95.027 24.5176 94.7666 24.3711C94.5143 24.2165 94.1034 24.1392 93.5337 24.1392V31.6831H89.188ZM93.5581 20.416H94.5957C95.1898 20.416 95.4868 19.7812 95.4868 18.5117C95.4868 17.7467 95.4217 17.2422 95.2915 16.998C95.1613 16.7458 94.9172 16.6196 94.5591 16.6196H93.5581V20.416ZM100.516 31.6831L102.591 12.6401H109.879L111.917 31.6831H107.853L107.572 28.2163H104.935L104.691 31.6831H100.516ZM106.083 16.0581L105.289 24.7861H107.169L106.278 16.0581H106.083ZM113.236 31.6831V12.6401H117.655L119.876 22.9673V12.6401H123.783V31.6831H119.583L117.191 21.3682V31.6831H113.236ZM130.118 31.8784C127.05 31.8784 125.516 29.6812 125.516 25.2866V18.5361C125.516 14.5241 127.274 12.5181 130.79 12.5181C132.238 12.5181 133.349 12.7826 134.122 13.3115C134.895 13.8324 135.428 14.5811 135.721 15.5576C136.014 16.5342 136.161 17.7101 136.161 19.0854H131.961V18.1089C131.961 17.645 131.896 17.2585 131.766 16.9492C131.644 16.6318 131.384 16.4731 130.985 16.4731C130.488 16.4731 130.159 16.64 129.996 16.9736C129.841 17.3073 129.764 17.6735 129.764 18.0723V25.9702C129.764 26.548 129.837 27.02 129.984 27.3862C130.139 27.7443 130.436 27.9233 130.875 27.9233C131.331 27.9233 131.632 27.7443 131.778 27.3862C131.933 27.02 132.01 26.5399 132.01 25.9458V24.4077H130.863V20.6968H136.112V31.6831H134.391L133.658 29.8765C132.91 31.2111 131.729 31.8784 130.118 31.8784ZM137.284 31.6831L139.359 12.6401H146.646L148.685 31.6831H144.62L144.339 28.2163H141.703L141.458 31.6831H137.284ZM142.85 16.0581L142.057 24.7861H143.937L143.045 16.0581H142.85ZM152.018 31.6831V24.6152L148.587 12.6401H152.848L154.044 19.9277L155.24 12.6401H159.488L156.07 24.6152V31.6831H152.018ZM160.575 31.6831V10.1987H164.872V28.021H169.291V31.6831H160.575ZM170.316 31.6831V12.6401H174.466V31.6831H170.316ZM176.175 31.6831V12.6401H180.594L182.816 22.9673V12.6401H186.722V31.6831H182.523L180.13 21.3682V31.6831H176.175ZM188.626 31.6831V12.6401H192.875V20.4526L194.876 12.6401H199.198L196.756 21.6855L199.698 31.6831H195.243L192.899 22.9307V31.6831H188.626Z" fill="#005F02"/>
<path d="M68.9192 40.6831L67.6052 38.2981H67.2362V40.6831H65.6972V34.3651H68.2802C68.7782 34.3651 69.2012 34.4521 69.5492 34.6261C69.9032 34.8001 70.1672 35.0401 70.3412 35.3461C70.5152 35.6461 70.6022 35.9821 70.6022 36.3541C70.6022 36.7741 70.4822 37.1491 70.2422 37.4791C70.0082 37.8091 69.6602 38.0431 69.1982 38.1811L70.6562 40.6831H68.9192ZM67.2362 37.2091H68.1902C68.4722 37.2091 68.6822 37.1401 68.8202 37.0021C68.9642 36.8641 69.0362 36.6691 69.0362 36.4171C69.0362 36.1771 68.9642 35.9881 68.8202 35.8501C68.6822 35.7121 68.4722 35.6431 68.1902 35.6431H67.2362V37.2091ZM76.3023 38.0911C76.3023 38.2351 76.2933 38.3851 76.2753 38.5411H72.7923C72.8163 38.8531 72.9153 39.0931 73.0893 39.2611C73.2693 39.4231 73.4883 39.5041 73.7463 39.5041C74.1303 39.5041 74.3973 39.3421 74.5473 39.0181H76.1853C76.1013 39.3481 75.9483 39.6451 75.7263 39.9091C75.5103 40.1731 75.2373 40.3801 74.9073 40.5301C74.5773 40.6801 74.2083 40.7551 73.8003 40.7551C73.3083 40.7551 72.8703 40.6501 72.4863 40.4401C72.1023 40.2301 71.8023 39.9301 71.5863 39.5401C71.3703 39.1501 71.2623 38.6941 71.2623 38.1721C71.2623 37.6501 71.3673 37.1941 71.5773 36.8041C71.7933 36.4141 72.0933 36.1141 72.4773 35.9041C72.8613 35.6941 73.3023 35.5891 73.8003 35.5891C74.2863 35.5891 74.7183 35.6911 75.0963 35.8951C75.4743 36.0991 75.7683 36.3901 75.9783 36.7681C76.1943 37.1461 76.3023 37.5871 76.3023 38.0911ZM74.7273 37.6861C74.7273 37.4221 74.6373 37.2121 74.4573 37.0561C74.2773 36.9001 74.0523 36.8221 73.7823 36.8221C73.5243 36.8221 73.3053 36.8971 73.1253 37.0471C72.9513 37.1971 72.8433 37.4101 72.8013 37.6861H74.7273ZM79.1572 40.7551C78.7192 40.7551 78.3292 40.6801 77.9872 40.5301C77.6452 40.3801 77.3752 40.1761 77.1772 39.9181C76.9792 39.6541 76.8682 39.3601 76.8442 39.0361H78.3652C78.3832 39.2101 78.4642 39.3511 78.6082 39.4591C78.7522 39.5671 78.9292 39.6211 79.1392 39.6211C79.3312 39.6211 79.4782 39.5851 79.5802 39.5131C79.6882 39.4351 79.7422 39.3361 79.7422 39.2161C79.7422 39.0721 79.6672 38.9671 79.5172 38.9011C79.3672 38.8291 79.1242 38.7511 78.7882 38.6671C78.4282 38.5831 78.1282 38.4961 77.8882 38.4061C77.6482 38.3101 77.4412 38.1631 77.2672 37.9651C77.0932 37.7611 77.0062 37.4881 77.0062 37.1461C77.0062 36.8581 77.0842 36.5971 77.2402 36.3631C77.4022 36.1231 77.6362 35.9341 77.9422 35.7961C78.2542 35.6581 78.6232 35.5891 79.0492 35.5891C79.6792 35.5891 80.1742 35.7451 80.5342 36.0571C80.9002 36.3691 81.1102 36.7831 81.1642 37.2991H79.7422C79.7182 37.1251 79.6402 36.9871 79.5082 36.8851C79.3822 36.7831 79.2142 36.7321 79.0042 36.7321C78.8242 36.7321 78.6862 36.7681 78.5902 36.8401C78.4942 36.9061 78.4462 36.9991 78.4462 37.1191C78.4462 37.2631 78.5212 37.3711 78.6712 37.4431C78.8272 37.5151 79.0672 37.5871 79.3912 37.6591C79.7632 37.7551 80.0662 37.8511 80.3002 37.9471C80.5342 38.0371 80.7382 38.1871 80.9122 38.3971C81.0922 38.6011 81.1852 38.8771 81.1912 39.2251C81.1912 39.5191 81.1072 39.7831 80.9392 40.0171C80.7772 40.2451 80.5402 40.4251 80.2282 40.5571C79.9222 40.6891 79.5652 40.7551 79.1572 40.7551ZM82.9067 35.1391C82.6367 35.1391 82.4147 35.0611 82.2407 34.9051C82.0727 34.7431 81.9887 34.5451 81.9887 34.3111C81.9887 34.0711 82.0727 33.8731 82.2407 33.7171C82.4147 33.5551 82.6367 33.4741 82.9067 33.4741C83.1707 33.4741 83.3867 33.5551 83.5547 33.7171C83.7287 33.8731 83.8157 34.0711 83.8157 34.3111C83.8157 34.5451 83.7287 34.7431 83.5547 34.9051C83.3867 35.0611 83.1707 35.1391 82.9067 35.1391ZM83.6717 35.6611V40.6831H82.1327V35.6611H83.6717ZM84.481 38.1631C84.481 37.6471 84.577 37.1941 84.769 36.8041C84.967 36.4141 85.234 36.1141 85.57 35.9041C85.906 35.6941 86.281 35.5891 86.695 35.5891C87.025 35.5891 87.325 35.6581 87.595 35.7961C87.871 35.9341 88.087 36.1201 88.243 36.3541V34.0231H89.782V40.6831H88.243V39.9631C88.099 40.2031 87.892 40.3951 87.622 40.5391C87.358 40.6831 87.049 40.7551 86.695 40.7551C86.281 40.7551 85.906 40.6501 85.57 40.4401C85.234 40.2241 84.967 39.9211 84.769 39.5311C84.577 39.1351 84.481 38.6791 84.481 38.1631ZM88.243 38.1721C88.243 37.7881 88.135 37.4851 87.919 37.2631C87.709 37.0411 87.451 36.9301 87.145 36.9301C86.839 36.9301 86.578 37.0411 86.362 37.2631C86.152 37.4791 86.047 37.7791 86.047 38.1631C86.047 38.5471 86.152 38.8531 86.362 39.0811C86.578 39.3031 86.839 39.4141 87.145 39.4141C87.451 39.4141 87.709 39.3031 87.919 39.0811C88.135 38.8591 88.243 38.5561 88.243 38.1721ZM95.6294 38.0911C95.6294 38.2351 95.6204 38.3851 95.6024 38.5411H92.1194C92.1434 38.8531 92.2424 39.0931 92.4164 39.2611C92.5964 39.4231 92.8154 39.5041 93.0734 39.5041C93.4574 39.5041 93.7244 39.3421 93.8744 39.0181H95.5124C95.4284 39.3481 95.2754 39.6451 95.0534 39.9091C94.8374 40.1731 94.5644 40.3801 94.2344 40.5301C93.9044 40.6801 93.5354 40.7551 93.1274 40.7551C92.6354 40.7551 92.1974 40.6501 91.8134 40.4401C91.4294 40.2301 91.1294 39.9301 90.9134 39.5401C90.6974 39.1501 90.5894 38.6941 90.5894 38.1721C90.5894 37.6501 90.6944 37.1941 90.9044 36.8041C91.1204 36.4141 91.4204 36.1141 91.8044 35.9041C92.1884 35.6941 92.6294 35.5891 93.1274 35.5891C93.6134 35.5891 94.0454 35.6911 94.4234 35.8951C94.8014 36.0991 95.0954 36.3901 95.3054 36.7681C95.5214 37.1461 95.6294 37.5871 95.6294 38.0911ZM94.0544 37.6861C94.0544 37.4221 93.9644 37.2121 93.7844 37.0561C93.6044 36.9001 93.3794 36.8221 93.1094 36.8221C92.8514 36.8221 92.6324 36.8971 92.4524 37.0471C92.2784 37.1971 92.1704 37.4101 92.1284 37.6861H94.0544ZM99.5013 35.6071C100.089 35.6071 100.557 35.7991 100.905 36.1831C101.259 36.5611 101.436 37.0831 101.436 37.7491V40.6831H99.9063V37.9561C99.9063 37.6201 99.8193 37.3591 99.6453 37.1731C99.4713 36.9871 99.2373 36.8941 98.9433 36.8941C98.6493 36.8941 98.4153 36.9871 98.2413 37.1731C98.0673 37.3591 97.9803 37.6201 97.9803 37.9561V40.6831H96.4413V35.6611H97.9803V36.3271C98.1363 36.1051 98.3463 35.9311 98.6103 35.8051C98.8743 35.6731 99.1713 35.6071 99.5013 35.6071ZM105.305 39.3781V40.6831H104.522C103.964 40.6831 103.529 40.5481 103.217 40.2781C102.905 40.0021 102.749 39.5551 102.749 38.9371V36.9391H102.137V35.6611H102.749V34.4371H104.288V35.6611H105.296V36.9391H104.288V38.9551C104.288 39.1051 104.324 39.2131 104.396 39.2791C104.468 39.3451 104.588 39.3781 104.756 39.3781H105.305ZM107.763 38.1631C107.763 37.6471 107.859 37.1941 108.051 36.8041C108.249 36.4141 108.516 36.1141 108.852 35.9041C109.188 35.6941 109.563 35.5891 109.977 35.5891C110.331 35.5891 110.64 35.6611 110.904 35.8051C111.174 35.9491 111.381 36.1381 111.525 36.3721V35.6611H113.064V40.6831H111.525V39.9721C111.375 40.2061 111.165 40.3951 110.895 40.5391C110.631 40.6831 110.322 40.7551 109.968 40.7551C109.56 40.7551 109.188 40.6501 108.852 40.4401C108.516 40.2241 108.249 39.9211 108.051 39.5311C107.859 39.1351 107.763 38.6791 107.763 38.1631ZM111.525 38.1721C111.525 37.7881 111.417 37.4851 111.201 37.2631C110.991 37.0411 110.733 36.9301 110.427 36.9301C110.121 36.9301 109.86 37.0411 109.644 37.2631C109.434 37.4791 109.329 37.7791 109.329 38.1631C109.329 38.5471 109.434 38.8531 109.644 39.0811C109.86 39.3031 110.121 39.4141 110.427 39.4141C110.733 39.4141 110.991 39.3031 111.201 39.0811C111.417 38.8591 111.525 38.5561 111.525 38.1721ZM117.238 35.6071C117.826 35.6071 118.294 35.7991 118.642 36.1831C118.996 36.5611 119.173 37.0831 119.173 37.7491V40.6831H117.643V37.9561C117.643 37.6201 117.556 37.3591 117.382 37.1731C117.208 36.9871 116.974 36.8941 116.68 36.8941C116.386 36.8941 116.152 36.9871 115.978 37.1731C115.804 37.3591 115.717 37.6201 115.717 37.9561V40.6831H114.178V35.6611H115.717V36.3271C115.873 36.1051 116.083 35.9311 116.347 35.8051C116.611 35.6731 116.908 35.6071 117.238 35.6071ZM119.936 38.1631C119.936 37.6471 120.032 37.1941 120.224 36.8041C120.422 36.4141 120.689 36.1141 121.025 35.9041C121.361 35.6941 121.736 35.5891 122.15 35.5891C122.48 35.5891 122.78 35.6581 123.05 35.7961C123.326 35.9341 123.542 36.1201 123.698 36.3541V34.0231H125.237V40.6831H123.698V39.9631C123.554 40.2031 123.347 40.3951 123.077 40.5391C122.813 40.6831 122.504 40.7551 122.15 40.7551C121.736 40.7551 121.361 40.6501 121.025 40.4401C120.689 40.2241 120.422 39.9211 120.224 39.5311C120.032 39.1351 119.936 38.6791 119.936 38.1631ZM123.698 38.1721C123.698 37.7881 123.59 37.4851 123.374 37.2631C123.164 37.0411 122.906 36.9301 122.6 36.9301C122.294 36.9301 122.033 37.0411 121.817 37.2631C121.607 37.4791 121.502 37.7791 121.502 38.1631C121.502 38.5471 121.607 38.8531 121.817 39.0811C122.033 39.3031 122.294 39.4141 122.6 39.4141C122.906 39.4141 123.164 39.3031 123.374 39.0811C123.59 38.8591 123.698 38.5561 123.698 38.1721ZM133.73 34.3651V40.6831H132.191V38.0821H129.797V40.6831H128.258V34.3651H129.797V36.8401H132.191V34.3651H133.73ZM137.127 40.7551C136.635 40.7551 136.191 40.6501 135.795 40.4401C135.405 40.2301 135.096 39.9301 134.868 39.5401C134.646 39.1501 134.535 38.6941 134.535 38.1721C134.535 37.6561 134.649 37.2031 134.877 36.8131C135.105 36.4171 135.417 36.1141 135.813 35.9041C136.209 35.6941 136.653 35.5891 137.145 35.5891C137.637 35.5891 138.081 35.6941 138.477 35.9041C138.873 36.1141 139.185 36.4171 139.413 36.8131C139.641 37.2031 139.755 37.6561 139.755 38.1721C139.755 38.6881 139.638 39.1441 139.404 39.5401C139.176 39.9301 138.861 40.2301 138.459 40.4401C138.063 40.6501 137.619 40.7551 137.127 40.7551ZM137.127 39.4231C137.421 39.4231 137.67 39.3151 137.874 39.0991C138.084 38.8831 138.189 38.5741 138.189 38.1721C138.189 37.7701 138.087 37.4611 137.883 37.2451C137.685 37.0291 137.439 36.9211 137.145 36.9211C136.845 36.9211 136.596 37.0291 136.398 37.2451C136.2 37.4551 136.101 37.7641 136.101 38.1721C136.101 38.5741 136.197 38.8831 136.389 39.0991C136.587 39.3151 136.833 39.4231 137.127 39.4231ZM145.53 35.6611V40.6831H143.991V39.9991C143.835 40.2211 143.622 40.4011 143.352 40.5391C143.088 40.6711 142.794 40.7371 142.47 40.7371C142.086 40.7371 141.747 40.6531 141.453 40.4851C141.159 40.3111 140.931 40.0621 140.769 39.7381C140.607 39.4141 140.526 39.0331 140.526 38.5951V35.6611H142.056V38.3881C142.056 38.7241 142.143 38.9851 142.317 39.1711C142.491 39.3571 142.725 39.4501 143.019 39.4501C143.319 39.4501 143.556 39.3571 143.73 39.1711C143.904 38.9851 143.991 38.7241 143.991 38.3881V35.6611H145.53ZM148.679 40.7551C148.241 40.7551 147.851 40.6801 147.509 40.5301C147.167 40.3801 146.897 40.1761 146.699 39.9181C146.501 39.6541 146.39 39.3601 146.366 39.0361H147.887C147.905 39.2101 147.986 39.3511 148.13 39.4591C148.274 39.5671 148.451 39.6211 148.661 39.6211C148.853 39.6211 149 39.5851 149.102 39.5131C149.21 39.4351 149.264 39.3361 149.264 39.2161C149.264 39.0721 149.189 38.9671 149.039 38.9011C148.889 38.8291 148.646 38.7511 148.31 38.6671C147.95 38.5831 147.65 38.4961 147.41 38.4061C147.17 38.3101 146.963 38.1631 146.789 37.9651C146.615 37.7611 146.528 37.4881 146.528 37.1461C146.528 36.8581 146.606 36.5971 146.762 36.3631C146.924 36.1231 147.158 35.9341 147.464 35.7961C147.776 35.6581 148.145 35.5891 148.571 35.5891C149.201 35.5891 149.696 35.7451 150.056 36.0571C150.422 36.3691 150.632 36.7831 150.686 37.2991H149.264C149.24 37.1251 149.162 36.9871 149.03 36.8851C148.904 36.7831 148.736 36.7321 148.526 36.7321C148.346 36.7321 148.208 36.7681 148.112 36.8401C148.016 36.9061 147.968 36.9991 147.968 37.1191C147.968 37.2631 148.043 37.3711 148.193 37.4431C148.349 37.5151 148.589 37.5871 148.913 37.6591C149.285 37.7551 149.588 37.8511 149.822 37.9471C150.056 38.0371 150.26 38.1871 150.434 38.3971C150.614 38.6011 150.707 38.8771 150.713 39.2251C150.713 39.5191 150.629 39.7831 150.461 40.0171C150.299 40.2451 150.062 40.4251 149.75 40.5571C149.444 40.6891 149.087 40.7551 148.679 40.7551ZM156.388 38.0911C156.388 38.2351 156.379 38.3851 156.361 38.5411H152.878C152.902 38.8531 153.001 39.0931 153.175 39.2611C153.355 39.4231 153.574 39.5041 153.832 39.5041C154.216 39.5041 154.483 39.3421 154.633 39.0181H156.271C156.187 39.3481 156.034 39.6451 155.812 39.9091C155.596 40.1731 155.323 40.3801 154.993 40.5301C154.663 40.6801 154.294 40.7551 153.886 40.7551C153.394 40.7551 152.956 40.6501 152.572 40.4401C152.188 40.2301 151.888 39.9301 151.672 39.5401C151.456 39.1501 151.348 38.6941 151.348 38.1721C151.348 37.6501 151.453 37.1941 151.663 36.8041C151.879 36.4141 152.179 36.1141 152.563 35.9041C152.947 35.6941 153.388 35.5891 153.886 35.5891C154.372 35.5891 154.804 35.6911 155.182 35.8951C155.56 36.0991 155.854 36.3901 156.064 36.7681C156.28 37.1461 156.388 37.5871 156.388 38.0911ZM154.813 37.6861C154.813 37.4221 154.723 37.2121 154.543 37.0561C154.363 36.9001 154.138 36.8221 153.868 36.8221C153.61 36.8221 153.391 36.8971 153.211 37.0471C153.037 37.1971 152.929 37.4101 152.887 37.6861H154.813ZM162.329 40.6831L161.015 38.2981H160.646V40.6831H159.107V34.3651H161.69C162.188 34.3651 162.611 34.4521 162.959 34.6261C163.313 34.8001 163.577 35.0401 163.751 35.3461C163.925 35.6461 164.012 35.9821 164.012 36.3541C164.012 36.7741 163.892 37.1491 163.652 37.4791C163.418 37.8091 163.07 38.0431 162.608 38.1811L164.066 40.6831H162.329ZM160.646 37.2091H161.6C161.882 37.2091 162.092 37.1401 162.23 37.0021C162.374 36.8641 162.446 36.6691 162.446 36.4171C162.446 36.1771 162.374 35.9881 162.23 35.8501C162.092 35.7121 161.882 35.6431 161.6 35.6431H160.646V37.2091ZM169.712 38.0911C169.712 38.2351 169.703 38.3851 169.685 38.5411H166.202C166.226 38.8531 166.325 39.0931 166.499 39.2611C166.679 39.4231 166.898 39.5041 167.156 39.5041C167.54 39.5041 167.807 39.3421 167.957 39.0181H169.595C169.511 39.3481 169.358 39.6451 169.136 39.9091C168.92 40.1731 168.647 40.3801 168.317 40.5301C167.987 40.6801 167.618 40.7551 167.21 40.7551C166.718 40.7551 166.28 40.6501 165.896 40.4401C165.512 40.2301 165.212 39.9301 164.996 39.5401C164.78 39.1501 164.672 38.6941 164.672 38.1721C164.672 37.6501 164.777 37.1941 164.987 36.8041C165.203 36.4141 165.503 36.1141 165.887 35.9041C166.271 35.6941 166.712 35.5891 167.21 35.5891C167.696 35.5891 168.128 35.6911 168.506 35.8951C168.884 36.0991 169.178 36.3901 169.388 36.7681C169.604 37.1461 169.712 37.5871 169.712 38.0911ZM168.137 37.6861C168.137 37.4221 168.047 37.2121 167.867 37.0561C167.687 36.9001 167.462 36.8221 167.192 36.8221C166.934 36.8221 166.715 36.8971 166.535 37.0471C166.361 37.1971 166.253 37.4101 166.211 37.6861H168.137ZM172.432 35.5891C172.786 35.5891 173.095 35.6611 173.359 35.8051C173.629 35.9491 173.836 36.1381 173.98 36.3721V35.6611H175.519V40.6741C175.519 41.1361 175.426 41.5531 175.24 41.9251C175.06 42.3031 174.781 42.6031 174.403 42.8251C174.031 43.0471 173.566 43.1581 173.008 43.1581C172.264 43.1581 171.661 42.9811 171.199 42.6271C170.737 42.2791 170.473 41.8051 170.407 41.2051H171.928C171.976 41.3971 172.09 41.5471 172.27 41.6551C172.45 41.7691 172.672 41.8261 172.936 41.8261C173.254 41.8261 173.506 41.7331 173.692 41.5471C173.884 41.3671 173.98 41.0761 173.98 40.6741V39.9631C173.83 40.1971 173.623 40.3891 173.359 40.5391C173.095 40.6831 172.786 40.7551 172.432 40.7551C172.018 40.7551 171.643 40.6501 171.307 40.4401C170.971 40.2241 170.704 39.9211 170.506 39.5311C170.314 39.1351 170.218 38.6791 170.218 38.1631C170.218 37.6471 170.314 37.1941 170.506 36.8041C170.704 36.4141 170.971 36.1141 171.307 35.9041C171.643 35.6941 172.018 35.5891 172.432 35.5891ZM173.98 38.1721C173.98 37.7881 173.872 37.4851 173.656 37.2631C173.446 37.0411 173.188 36.9301 172.882 36.9301C172.576 36.9301 172.315 37.0411 172.099 37.2631C171.889 37.4791 171.784 37.7791 171.784 38.1631C171.784 38.5471 171.889 38.8531 172.099 39.0811C172.315 39.3031 172.576 39.4141 172.882 39.4141C173.188 39.4141 173.446 39.3031 173.656 39.0811C173.872 38.8591 173.98 38.5561 173.98 38.1721ZM177.407 35.1391C177.137 35.1391 176.915 35.0611 176.741 34.9051C176.573 34.7431 176.489 34.5451 176.489 34.3111C176.489 34.0711 176.573 33.8731 176.741 33.7171C176.915 33.5551 177.137 33.4741 177.407 33.4741C177.671 33.4741 177.887 33.5551 178.055 33.7171C178.229 33.8731 178.316 34.0711 178.316 34.3111C178.316 34.5451 178.229 34.7431 178.055 34.9051C177.887 35.0611 177.671 35.1391 177.407 35.1391ZM178.172 35.6611V40.6831H176.633V35.6611H178.172ZM181.33 40.7551C180.892 40.7551 180.502 40.6801 180.16 40.5301C179.818 40.3801 179.548 40.1761 179.35 39.9181C179.152 39.6541 179.041 39.3601 179.017 39.0361H180.538C180.556 39.2101 180.637 39.3511 180.781 39.4591C180.925 39.5671 181.102 39.6211 181.312 39.6211C181.504 39.6211 181.651 39.5851 181.753 39.5131C181.861 39.4351 181.915 39.3361 181.915 39.2161C181.915 39.0721 181.84 38.9671 181.69 38.9011C181.54 38.8291 181.297 38.7511 180.961 38.6671C180.601 38.5831 180.301 38.4961 180.061 38.4061C179.821 38.3101 179.614 38.1631 179.44 37.9651C179.266 37.7611 179.179 37.4881 179.179 37.1461C179.179 36.8581 179.257 36.5971 179.413 36.3631C179.575 36.1231 179.809 35.9341 180.115 35.7961C180.427 35.6581 180.796 35.5891 181.222 35.5891C181.852 35.5891 182.347 35.7451 182.707 36.0571C183.073 36.3691 183.283 36.7831 183.337 37.2991H181.915C181.891 37.1251 181.813 36.9871 181.681 36.8851C181.555 36.7831 181.387 36.7321 181.177 36.7321C180.997 36.7321 180.859 36.7681 180.763 36.8401C180.667 36.9061 180.619 36.9991 180.619 37.1191C180.619 37.2631 180.694 37.3711 180.844 37.4431C181 37.5151 181.24 37.5871 181.564 37.6591C181.936 37.7551 182.239 37.8511 182.473 37.9471C182.707 38.0371 182.911 38.1871 183.085 38.3971C183.265 38.6011 183.358 38.8771 183.364 39.2251C183.364 39.5191 183.28 39.7831 183.112 40.0171C182.95 40.2451 182.713 40.4251 182.401 40.5571C182.095 40.6891 181.738 40.7551 181.33 40.7551ZM187.105 39.3781V40.6831H186.322C185.764 40.6831 185.329 40.5481 185.017 40.2781C184.705 40.0021 184.549 39.5551 184.549 38.9371V36.9391H183.937V35.6611H184.549V34.4371H186.088V35.6611H187.096V36.9391H186.088V38.9551C186.088 39.1051 186.124 39.2131 186.196 39.2791C186.268 39.3451 186.388 39.3781 186.556 39.3781H187.105ZM189.501 36.4981C189.681 36.2221 189.906 36.0061 190.176 35.8501C190.446 35.6881 190.746 35.6071 191.076 35.6071V37.2361H190.653C190.269 37.2361 189.981 37.3201 189.789 37.4881C189.597 37.6501 189.501 37.9381 189.501 38.3521V40.6831H187.962V35.6611H189.501V36.4981ZM196.941 35.6611L193.791 43.0681H192.135L193.287 40.5121L191.244 35.6611H192.963L194.124 38.8021L195.276 35.6611H196.941Z" fill="#005F02"/>
<rect x="7.30688" y="17.4067" width="38.6972" height="12.8852" fill="#005F02"/>
<ellipse cx="26.6555" cy="30.1695" rx="19.3486" ry="2.06649" fill="#005F02"/>
<path d="M25.5825 5.92391C26.2039 5.55892 26.9754 5.5582 27.601 5.92202L43.173 14.9787C44.9405 16.0067 44.2255 18.7044 42.185 18.7063L11.1441 18.7354C9.10358 18.7373 8.35787 16.041 10.1137 15.0097L25.5825 5.92391Z" fill="#005F02"/>
<line y1="-1.5" x2="29.8726" y2="-1.5" transform="matrix(0.86297 -0.505254 0.455882 0.89004 1.36768 17.7764)" stroke="#005F02" stroke-width="3"/>
<line y1="-1.5" x2="29.8556" y2="-1.5" transform="matrix(0.868079 0.496426 -0.447423 0.894323 25.397 2.68311)" stroke="#005F02" stroke-width="3"/>
<ellipse cx="33.5416" cy="22.3842" rx="3.68545" ry="3.94032" fill="#FAFAFA"/>
<ellipse cx="20.6422" cy="20.4139" rx="3.68545" ry="3.94032" fill="#FAFAFA"/>
<g opacity="0.85">
<path d="M6.89575 33.5483C22.7663 35.3947 31.0894 35.1767 45.593 33.5483V37.3096H6.89575V33.5483Z" fill="#005F02"/>
<ellipse cx="26.2444" cy="37.3094" rx="19.3486" ry="2.14926" fill="#005F02"/>
</g>
<g opacity="0.85">
<path d="M6.89575 40.7744C22.7663 42.6208 31.0894 42.4027 45.593 40.7744V44.5356H6.89575V40.7744Z" fill="#005F02"/>
<ellipse cx="26.2444" cy="44.534" rx="19.3486" ry="2.14926" fill="#005F02"/>
</g>
<rect opacity="0.5" x="13.8857" y="26.9814" width="12.8991" height="19.7016" rx="1" fill="#FAFAFA"/>
<rect opacity="0.99" x="13.8857" y="25.0112" width="12.8991" height="9.19407" rx="4" fill="#FAFAFA"/>
<rect x="26.7852" y="26.9814" width="12.8991" height="7.22391" rx="3.61196" fill="#FAFAFA"/>
<rect opacity="0.5" x="26.7852" y="29.6079" width="12.8991" height="17.0747" rx="1" fill="#FAFAFA"/>
</svg>
